<?xml version="1.0" encoding="UTF-8" standalone="no"?>
<!-- Created with Inkscape (http://www.inkscape.org/) -->
<svg xmlns:inkscape="http://www.inkscape.org/namespaces/inkscape" xmlns:rdf="http://www.w3.org/1999/02/22-rdf-syntax-ns#" xmlns="http://www.w3.org/2000/svg" xmlns:xlink="http://www.w3.org/1999/xlink" xmlns:ns1="http://sozi.baierouge.fr" xmlns:cc="http://creativecommons.org/ns#" xmlns:sodipodi="http://sodipodi.sourceforge.net/DTD/sodipodi-0.dtd" xmlns:dc="http://purl.org/dc/elements/1.1/" id="svg2" xml:space="preserve" viewBox="0 0 137.02 50.784" version="1.1" inkscape:version="0.91 r13725">
  <g id="g10" transform="matrix(1.25 0 0 -1.25 0 50.784)">
    <g id="g12">
      <path id="path14" style="fill-rule:evenodd;fill:#ced1d6" d="m105.59 28.935c-1.012-1.543-2.426-2.171-4.238-1.878-1.36 0.242-2.79-0.399-4.282-1.918-2.16-2.188-3.386-3.375-3.679-3.563-1.922-1.144-4.082-1.719-6.481-1.719-1.441-0.027-3.695 0.254-6.762 0.84-2.32 0.426-5.281 0.602-8.878 0.52-2-0.055-4.989-0.133-8.961-0.239-7.918 0.051-14.637 0.438-20.161 1.161-1.011 0.132-1.851 0.531-2.519 1.199-0.586 0.586-0.957 1.32-1.117 2.199l2.679 3.52c0.239-0.344 0.598-0.692 1.079-1.04 2.96-2.082 7.015-3.375 12.16-3.878 3.199-0.321 7.519-0.321 12.961 0 6.507 0.078 11.414 0.265 14.718 0.558 5.762 0.535 10.36 1.988 13.801 4.36 0.828 0.613 1.371 1.292 1.641 2.039 0.16-0.024 0.32-0.039 0.48-0.039 0.668-0.079 1.52-0.161 2.559-0.239 0.055 0 0.121-0.015 0.199-0.039h0.281c1.414-0.137 2.559-0.441 3.442-0.922 0.078-0.054 0.172-0.105 0.281-0.16l0.797-0.762zm0.519-0.437 0.121-0.121 0.161-0.281c-0.09 0.136-0.184 0.269-0.282 0.402zm-103.93-1.621c-0.238 0.031-0.469 0.066-0.68 0.101-0.023-0.004-0.043-0.004-0.062 0l-0.059 0.02c-0.09 0.019-0.176 0.039-0.262 0.059l-0.918 0.199c-0.054 0.027-0.093 0.043-0.121 0.043-0.32 1.332 0.453 2.492 2.321 3.48 0.691-0.508 1.507-0.722 2.441-0.64 2.266 0.132 4.719 0.785 7.359 1.957 1.332 0.695 2.293 1.136 2.879 1.32 0.934 0.297 1.867 0.176 2.801-0.359 2.559-1.493 4.68-2.559 6.359-3.2 2.133-0.828 4.442-1.359 6.918-1.601 1.95-0.211 3.977 0.23 6.082 1.32 2.161 1.121 3.575 2.481 4.239 4.082v0.039l0.14-0.14 0.082-0.098c0.137-0.215 0.25-0.457 0.34-0.723 0.027-0.023 0.039-0.051 0.039-0.078v-0.039c0.028-0.109 0.055-0.242 0.078-0.402 0.055-0.266 0.067-0.586 0.043-0.961l-0.121-1.321c-0.32-0.156-0.933-0.332-1.84-0.519-0.718-0.16-1.281-0.399-1.679-0.719-0.266-0.215-0.535-0.601-0.801-1.16-0.215-0.426-0.559-0.734-1.039-0.918-0.242-0.082-0.668-0.094-1.281-0.043-0.664 0.109-1.094 0.148-1.282 0.121-0.613-0.055-1.504-0.348-2.679-0.879-0.371-0.187-0.731-0.336-1.078-0.441-0.614-0.215-1.133-0.32-1.559-0.32-0.641 0-1.387 0.121-2.242 0.359-0.028 0.027-0.055 0.043-0.078 0.043-0.137 0.027-0.27 0.066-0.403 0.117-0.586 0.188-1.465 0.508-2.64 0.961-1.094 0.398-2.426 0.652-4 0.762-2.133 0.183-4.68 0.117-7.637-0.203h-0.043c-0.664-0.079-1.305-0.145-1.918-0.2-0.266 0-0.535-0.011-0.801-0.039-0.054 0-0.105-0.011-0.16-0.039l-6.559 0.039-0.179 0.02zm35.859-2.141c0.02 0.059 0.039 0.121 0.059 0.18 0.043 0.101 0.09 0.199 0.14 0.301l0.078 0.082c-0.105-0.188-0.199-0.375-0.277-0.563zm-1.402-17.277c-0.051-0.16-0.106-0.336-0.16-0.52-0.504-1.441-1.266-2.468-2.278-3.082-1.336-0.828-3.199-1-5.601-0.519h-0.078l-0.52 0.121c-0.137 0.023-0.254 0.051-0.363 0.078-1.199 0.266-2.68 0.668-4.438 1.199-0.082 0.028-0.16 0.055-0.242 0.082-0.531 0.106-1.531 0.199-3 0.281-0.238 0.051-0.453 0.106-0.641 0.161-0.773 0.32-1.171 0.879-1.199 1.679-0.027 0.16 0.028 0.399 0.16 0.719 4.243-1.226 8.641-1.332 13.2-0.32 1.226 0.293 2.066 0.933 2.523 1.922 0.426 0.906 0.465 1.89 0.117 2.957 0.989-0.266 1.723-0.758 2.199-1.481 0.11-0.156 0.204-0.332 0.282-0.519 0-0.024 0.015-0.051 0.039-0.078v-0.043c0.027-0.024 0.043-0.067 0.043-0.118l-0.043-2.519z" inkscape:connector-curvature="0"/>
      <path id="path16" style="fill-rule:evenodd;fill:#dddee0" d="m41.191 29.057c0.079 0.105 0.172 0.199 0.278 0.281 0.297 0.265 0.933 0.812 1.922 1.64 1.011 0.852 2.375 1.973 4.078 3.36 2.109 1.734 4.066 3.066 5.883 4 2.238 1.172 4.48 1.894 6.718 2.16 2.239 0.238 4.868 0.144 7.879-0.281 0.586-0.078 3.176-0.559 7.762-1.438 2.746-0.508 6.254-1.683 10.519-3.523 4.907-2.078 8.348-3.399 10.321-3.957 0.293-0.082 0.785-0.16 1.48-0.242-0.16 0-0.32 0.015-0.48 0.039-0.27-0.747-0.817-1.426-1.641-2.039-3.441-2.372-8.043-3.825-13.801-4.36-3.308-0.293-8.214-0.48-14.718-0.558-5.442-0.321-9.762-0.321-12.961 0-5.149 0.503-9.2 1.796-12.16 3.878-0.481 0.348-0.84 0.696-1.079 1.04zm65.758-3.04c-0.051-0.375-0.172-0.746-0.359-1.121-0.133-0.265-0.332-0.531-0.598-0.8l0.957 1.921zm-0.398 1.762c0.019-0.047 0.039-0.094 0.058-0.14-0.019 0.046-0.043 0.082-0.058 0.097v0.043zm-105.05-0.801c0.215-0.035 0.442-0.07 0.68-0.101-0.184 0.019-0.367 0.039-0.547 0.058-0.047 0.016-0.094 0.028-0.137 0.043h0.004zm39.973 6.68c-0.664-1.601-2.078-2.961-4.239-4.082-2.105-1.094-4.132-1.531-6.082-1.32-2.476 0.242-4.785 0.773-6.918 1.601-1.679 0.641-3.8 1.707-6.359 3.2-0.933 0.535-1.867 0.656-2.801 0.359-0.586-0.184-1.547-0.625-2.879-1.32-2.64-1.172-5.093-1.825-7.359-1.957-0.934-0.082-1.75 0.132-2.441 0.64 0.535 0.293 1.16 0.559 1.879 0.797 4 1.441 6.132 2.293 6.402 2.563l2.68 1.039c0.664 0.132 1.398 0.519 2.199 1.16 1.066 0.801 1.758 1.281 2.078 1.441 0.933 0.449 2.496 0.653 4.68 0.598 2.882 0 5.933-0.36 9.16-1.078 2.535-0.563 3.883-0.867 4.043-0.922 1.519-0.375 2.797-0.813 3.84-1.32 0.957-0.454 1.664-0.918 2.117-1.399zm0.562-0.84v-0.082c-0.09 0.266-0.203 0.508-0.34 0.723 0.063-0.094 0.125-0.188 0.18-0.281 0.055-0.106 0.106-0.227 0.16-0.36zm-4.281-9.16c0.043 0.391 0.156 0.813 0.34 1.258-0.02-0.059-0.039-0.121-0.059-0.18l-0.281-1.078zm0-0.762c-0.027 0.133-0.027 0.266 0 0.403v-0.403zm-19.48-15.238c0.214 0.453 0.64 0.973 1.281 1.559 0.851 0.8 1.625 1.336 2.32 1.601 0.664 0.266 1.641 0.453 2.918 0.559 1.496 0.105 2.481 0.215 2.961 0.32 2 0.453 3.52 0.692 4.559 0.719 1.949 0.027 3.281-0.531 4-1.68-0.477 0.719-1.211 1.215-2.2 1.481 0.348-1.067 0.309-2.055-0.117-2.961-0.457-0.985-1.297-1.625-2.523-1.918-4.559-1.012-8.957-0.906-13.199 0.32zm18.359-0.199c-0.024-0.11-0.051-0.227-0.078-0.363-0.028-0.051-0.055-0.106-0.082-0.157 0.054 0.184 0.109 0.36 0.16 0.52z" inkscape:connector-curvature="0"/>
      <path id="path18" style="fill-rule:evenodd;fill:#abb5c0" d="m49.629 20.818c-0.664-0.027-1.012-0.039-1.039-0.039-0.746 0-2.387-0.137-4.918-0.402-0.43-0.028-0.867-0.067-1.32-0.121-2.856 0.027-4.387 0.906-4.602 2.64v0.762l0.281 1.078c0.078 0.188 0.172 0.375 0.278 0.563 0.054 0.105 0.109 0.211 0.16 0.32 0-0.027 0.015-0.055 0.043-0.082 0.16-0.879 0.531-1.613 1.117-2.199 0.668-0.668 1.508-1.067 2.519-1.199 5.524-0.723 12.243-1.11 20.161-1.161 3.972 0.106 6.961 0.184 8.961 0.239 3.601 0.082 6.558-0.094 8.878-0.52 3.067-0.586 5.321-0.867 6.762-0.84 2.399 0 4.559 0.575 6.481 1.719 0.293 0.188 1.519 1.375 3.679 3.563 1.492 1.519 2.922 2.16 4.282 1.918 1.812-0.293 3.226 0.335 4.238 1.878 0.027 0.028 0.043 0.055 0.043 0.082 0.183-0.16 0.344-0.332 0.48-0.519 0.094-0.133 0.188-0.266 0.278-0.402 0.027-0.047 0.054-0.094 0.082-0.137 0.027-0.047 0.054-0.094 0.078-0.141v-0.082c0.019-0.015 0.039-0.051 0.062-0.097 0.004-0.016 0.012-0.036 0.02-0.063l0.078-0.16c0.109-0.238 0.176-0.481 0.203-0.719 0.024-0.215 0.039-0.426 0.039-0.64v-0.04l-0.961-1.921c-0.586-0.586-1.68-0.825-3.281-0.719-1.731 0.105-2.906-0.039-3.52-0.442-0.586-0.343-1.144-1.105-1.679-2.277-0.614-1.281-1.145-2.121-1.598-2.519-0.375-0.348-0.762-0.653-1.16-0.922-1.52-0.957-3.215-1.305-5.082-1.039-0.027 0-2.172 0.652-6.442 1.961-0.878 0.265-1.918 0.425-3.117 0.48-0.453 0.027-1.547 0.039-3.281 0.039-0.32 0-0.852 0.027-1.602 0.082-0.503 0.024-0.929 0.012-1.277-0.043-0.109 0-0.215-0.012-0.32-0.039-0.426-0.078-0.895-0.266-1.403-0.559-0.503-0.292-0.929-0.48-1.277-0.562-0.641-0.105-1.48-0.105-2.519 0-0.375 0.055-0.789 0.121-1.243 0.199-0.105 0.028-0.226 0.055-0.359 0.082-0.691 0.16-1.812 0.438-3.359 0.84-0.293 0.051-0.707 0.172-1.239 0.359-0.589 0.215-1.32 0.481-2.203 0.801-1.465 0.531-2.625 0.867-3.48 1l-1.278 0.117h-0.359c-0.137 0.028-0.281 0.043-0.441 0.043l-1.442-0.043h-0.437c-1.336-0.05-2.321-0.089-2.961-0.117h-0.004z" inkscape:connector-curvature="0"/>
      <path id="path20" style="fill-rule:evenodd;fill:#504a3f" d="m43.391 30.978c-0.989-0.828-1.625-1.375-1.922-1.64-0.106-0.082-0.199-0.176-0.278-0.281l-2.679-3.52c-0.028 0.027-0.043 0.055-0.043 0.082-0.051-0.109-0.106-0.215-0.16-0.32l-0.079-0.082c-0.05-0.102-0.097-0.2-0.14-0.301-0.184-0.449-0.297-0.867-0.34-1.258v-0.359c-0.027-0.137-0.027-0.27 0-0.403-0.16-0.078-0.332-0.16-0.52-0.238-1.464-0.695-3-1.148-4.601-1.359-0.024 0.238-0.012 0.652 0.043 1.238 0.051 0.559 0.051 0.961 0 1.199-0.11 0.828-0.203 1.266-0.281 1.321-0.082 0.082-0.547 0.175-1.399 0.281-0.16 0.027-0.363 0.039-0.601 0.039 0.347 0.105 0.707 0.254 1.078 0.441 1.176 0.531 2.066 0.824 2.679 0.879 0.188 0.027 0.618-0.012 1.282-0.121 0.613-0.051 1.039-0.039 1.281 0.043 0.48 0.184 0.824 0.492 1.039 0.918 0.266 0.559 0.535 0.949 0.801 1.16 0.398 0.32 0.961 0.559 1.679 0.719 0.907 0.187 1.52 0.363 1.84 0.519l0.121 1.321c0.024 0.375 0.012 0.695-0.043 0.961-0.023 0.16-0.05 0.293-0.078 0.402v0.039c0 0.027-0.011 0.055-0.039 0.078v0.082l1.36-1.84zm48.961-18.761c-0.563-0.051-1.149-0.106-1.762-0.16 0.16 0.214 0.922 0.921 2.281 2.121 0.961 0.851 1.547 1.679 1.758 2.48 0.055 0.16 0.094 0.348 0.121 0.559 0.398 0.265 0.785 0.574 1.16 0.922 0.453 0.398 0.988 1.238 1.602 2.519 0.531 1.172 1.09 1.934 1.679 2.277 0.614 0.403 1.786 0.547 3.52 0.442 1.598-0.106 2.691 0.133 3.281 0.719 0.266 0.265 0.465 0.535 0.598 0.8 0.187-0.187 0.375-0.386 0.558-0.601 1.149-1.36 1.883-2.571 2.204-3.637 0.293-1.016 0.347-2.441 0.16-4.281-0.723 0.027-1.52-0.149-2.403-0.52-0.507-0.187-1.281-0.508-2.32-0.961-1.918-0.773-4.641-1.453-8.16-2.039l-4.277-0.64zm-67.243 13.441c-0.984 0.188-2.039 0.453-3.16 0.801-0.824 0.265-1.652 0.547-2.48 0.84 1.574-0.11 2.906-0.364 4-0.762 1.176-0.453 2.054-0.773 2.64-0.961 0.133-0.051 0.266-0.094 0.403-0.117l-1.403 0.199z" inkscape:connector-curvature="0"/>
      <path id="path22" style="fill-rule:evenodd;fill:#635b4f" d="m90.59 12.057c-0.16-0.028-0.309-0.051-0.442-0.079-2.132-0.402-4.132-1.187-6-2.359l-4.359-1.762-0.379-0.078c-0.387-0.062-0.781-0.101-1.18-0.121 1.438 0.641 2.25 1.598 2.438 2.879 0.27 1.762 0.402 2.668 0.402 2.719 0.106 1.203-0.015 2.027-0.359 2.48-0.43 0.535-1.094 0.828-2 0.883-0.508 0-1.27-0.016-2.281-0.039l-2.2 0.238c-0.105 0.641-0.199 1.266-0.281 1.879 0.348 0.055 0.774 0.067 1.281 0.043 0.747-0.055 1.282-0.082 1.598-0.082 1.734 0 2.828-0.012 3.281-0.039 1.2-0.055 2.243-0.215 3.121-0.48 4.266-1.309 6.415-1.961 6.438-1.961 1.867-0.266 3.562 0.082 5.082 1.039-0.027-0.211-0.066-0.399-0.121-0.559-0.211-0.801-0.797-1.625-1.758-2.48-1.359-1.2-2.121-1.907-2.281-2.121zm-37.719 0.921 0.078 0.2c1.653 0.453 3.242 0.773 4.762 0.961 1.281 0 2.227 0.05 2.84 0.156 1.117 0.187 1.812 0.762 2.078 1.722 0.187 0.586 0.094 1.438-0.277 2.559-0.055 0.16-0.094 0.309-0.122 0.441 0.536-0.187 0.946-0.308 1.239-0.359 1.547-0.402 2.668-0.68 3.363-0.84 0.211-0.855 0.316-1.855 0.316-3 0-0.91-0.023-2.226-0.078-3.961v-0.16c-0.8 0.188-2.082 0.348-3.84 0.481-0.214 0.027-0.425 0.039-0.64 0.039l-4.762 0.8c-2.398 0.508-4 0.813-4.797 0.922l-0.16 0.039zm-3 3.918 0.359-3.839c-0.437-0.016-0.945-0.043-1.519-0.079 0.293 0.614 0.68 1.918 1.16 3.918zm-37.562 7.442c-0.161 0.508-0.305 1.304-0.438 2.398-0.027 0.133-0.039 0.254-0.039 0.36 2.957 0.32 5.504 0.386 7.637 0.203 0.828-0.297 1.656-0.575 2.48-0.84-0.531-0.883-1.117-1.629-1.758-2.242-0.507-0.426-1.242-0.785-2.199-1.078-0.375 0.078-0.722 0.144-1.043 0.199l-2.48 0.519c-1.305 0.293-2.024 0.453-2.16 0.481zm20.32-3.039c-1.277-0.188-2.586-0.227-3.918-0.121 0.027 0.05 0.199 0.281 0.519 0.679 0.239 0.321 0.332 0.68 0.282 1.078-0.11 0.536-0.348 0.911-0.723 1.122-0.078 0.054-0.519 0.214-1.32 0.48-0.797 0.293-1.586 0.668-2.36 1.121l1.403-0.199c0.023 0 0.05-0.016 0.078-0.043 0.855-0.238 1.601-0.359 2.242-0.359 0.426 0 0.945 0.105 1.559 0.32 0.238 0 0.441-0.012 0.601-0.039 0.852-0.106 1.317-0.199 1.399-0.281 0.078-0.051 0.171-0.493 0.281-1.321 0.051-0.238 0.051-0.64 0-1.199-0.055-0.586-0.067-1-0.043-1.238zm3.922-14.203c-0.215-3.625-1.574-5.864-4.082-6.719-2.293-0.774-5.465-0.36-9.52 1.242-2 0.773-3.172 1.691-3.519 2.758 1.175-0.453 2.254-1.024 3.242-1.719 1.012-0.668 2.023-0.84 3.039-0.519 0.773 0.242 1.414 0.707 1.918 1.398 0.109-0.023 0.23-0.051 0.363-0.078l0.52-0.121h0.078c2.402-0.481 4.265-0.305 5.601 0.519 1.012 0.614 1.774 1.641 2.278 3.082 0.027 0.051 0.054 0.106 0.082 0.157z" inkscape:connector-curvature="0"/>
      <path id="path24" style="fill-rule:evenodd;fill:#867b6c" d="m74.23 16.818c0.536-2.883 1.067-5.242 1.602-7.082 0.078-0.347 0.305-1.051 0.68-2.117h-0.641c-1.254 0.133-2.535 0.398-3.84 0.797-0.215 0.082-0.453 0.176-0.719 0.281l-1.121 0.559c-0.082 0.054-0.148 0.093-0.199 0.121l-0.203 0.121c-0.051 0.027-0.117 0.066-0.199 0.121-0.348 0.211-0.664 0.383-0.961 0.52-0.184 0.078-0.359 0.156-0.52 0.238l0.243 2.082c0.238 1.918 0.265 3.613 0.078 5.078 1.043-0.105 1.882-0.105 2.519 0 0.348 0.082 0.778 0.266 1.281 0.559 0.508 0.296 0.973 0.484 1.403 0.562 0.105 0.027 0.211 0.039 0.316 0.039 0.082-0.613 0.176-1.238 0.281-1.879zm-19.32 4.117c-0.64-1.519-1.293-4.105-1.961-7.757l-0.078-0.2c-0.293 0.024-0.574 0.051-0.84 0.079-0.16 0.027-0.402 0.027-0.722 0h-1.079l-0.359 3.839c0 1.762-0.082 3.067-0.242 3.922 0.641 0.028 1.629 0.067 2.961 0.117h0.441l1.438 0.043c0.16 0 0.308-0.015 0.441-0.043zm-11.238-0.558c-0.055-0.133-0.11-0.281-0.16-0.442-0.297-0.933-0.442-2.586-0.442-4.957 0-0.586 0.039-1.175 0.121-1.761-0.402 0.132-0.773 0.265-1.121 0.402-1.332 0.531-2.425 1.184-3.281 1.957l-0.519 0.52c-0.055 0.082-0.106 0.148-0.161 0.199-0.027 0-0.039 0.015-0.039 0.043-0.054 0.051-0.105 0.117-0.16 0.199l-0.398 0.602c-0.774 1.359-0.95 2.918-0.52 4.679 0.078 0.266 0.156 0.531 0.238 0.801v0.039c0.188 0.078 0.36 0.16 0.52 0.238 0.215-1.734 1.746-2.613 4.602-2.64 0.453 0.054 0.89 0.093 1.32 0.121z" inkscape:connector-curvature="0"/>
      <path id="path26" style="fill-rule:evenodd;fill:#797061" d="m90.59 12.057c0.613 0.054 1.199 0.109 1.762 0.16-0.696-0.078-1.426-0.16-2.204-0.239 0.133 0.024 0.282 0.051 0.442 0.079zm-14.719-4.438h0.641c-0.375 1.066-0.602 1.773-0.68 2.117-0.535 1.84-1.066 4.199-1.602 7.082l2.2-0.242c1.011 0.027 1.773 0.043 2.281 0.043 0.906-0.055 1.57-0.348 2-0.883 0.348-0.453 0.465-1.281 0.359-2.48 0-0.051-0.132-0.961-0.402-2.719-0.184-1.281-0.996-2.238-2.438-2.879 0.399 0.02 0.793 0.059 1.18 0.121-1.137-0.203-2.316-0.258-3.539-0.16zm-8.801 3.117v0.121c0.055 1.735 0.082 3.055 0.082 3.961 0 1.145-0.109 2.145-0.32 3 0.133-0.027 0.25-0.054 0.359-0.082 0.454-0.078 0.868-0.144 1.239-0.199 0.187-1.469 0.16-3.16-0.078-5.082l-0.243-2.078c-0.316 0.133-0.613 0.238-0.879 0.32-0.054 0-0.105 0.012-0.16 0.039zm-17.199 6.16c-0.48-2-0.867-3.304-1.16-3.918-0.336-0.023-0.695-0.05-1.082-0.082-1.813-0.105-3.238-0.011-4.277 0.282-0.055 0.027-0.11 0.039-0.161 0.039-0.082 0.586-0.121 1.175-0.121 1.761 0 2.375 0.145 4.028 0.442 4.961 0.05 0.16 0.105 0.305 0.16 0.438 2.531 0.269 4.172 0.402 4.918 0.402 0.027 0 0.375 0.012 1.039 0.039 0.16-0.855 0.242-2.16 0.242-3.922zm-27.922 9.563c1.121-0.348 2.176-0.613 3.16-0.801 0.774-0.453 1.563-0.828 2.36-1.121 0.801-0.266 1.242-0.426 1.32-0.48 0.375-0.211 0.613-0.586 0.723-1.122 0.05-0.398-0.043-0.757-0.282-1.078-0.32-0.398-0.492-0.625-0.519-0.679 1.332-0.106 2.641-0.067 3.918 0.121 1.601 0.211 3.137 0.664 4.601 1.359v-0.039c-1.171-0.535-2.386-0.934-3.64-1.203-1.867-0.371-3.934-0.414-6.199-0.117-2 0.238-4.547 0.703-7.641 1.398-1.039 0.238-1.973 0.453-2.801 0.641 0.321-0.055 0.668-0.121 1.043-0.199 0.957 0.293 1.692 0.652 2.199 1.078 0.641 0.613 1.227 1.359 1.758 2.242zm-20.32 0.476 0.543-0.058 0.18-0.02 6.558-0.039c0.055 0.028 0.106 0.039 0.16 0.039 0.266 0.028 0.535 0.039 0.801 0.039 0.613 0.055 1.254 0.121 1.918 0.2h0.043c0-0.106 0.012-0.227 0.039-0.36 0.133-1.094 0.277-1.89 0.438-2.398-0.051 0.027-0.094 0.039-0.118 0.039-1.199 0.215-2.949 0.281-5.242 0.199-2.426-0.105-4.172-0.078-5.238 0.082-0.106 0.906-0.133 1.664-0.082 2.277zm51.32-13.757c0.668 3.652 1.321 6.238 1.961 7.757h0.36l1.281-0.117c0.851-0.133 2.015-0.469 3.48-1 0.879-0.32 1.614-0.586 2.199-0.801 0.028-0.132 0.067-0.281 0.122-0.441 0.375-1.117 0.464-1.973 0.281-2.559-0.27-0.96-0.961-1.535-2.082-1.718-0.613-0.11-1.559-0.16-2.84-0.16-1.52-0.188-3.106-0.508-4.762-0.961zm-25.32-9.641c-0.504-0.691-1.145-1.16-1.918-1.398-1.016-0.321-2.027-0.149-3.039 0.519-0.988 0.691-2.067 1.266-3.242 1.719-0.078 0.238-0.121 0.492-0.121 0.758v0.121c0.187-0.055 0.402-0.106 0.64-0.16 1.469-0.079 2.469-0.172 3-0.282 0.082-0.023 0.16-0.05 0.242-0.078 1.758-0.531 3.239-0.933 4.438-1.199z" inkscape:connector-curvature="0"/>
    </g>
  </g>
<metadata><rdf:RDF><cc:Work><dc:format>image/svg+xml</dc:format><dc:type rdf:resource="http://purl.org/dc/dcmitype/StillImage"/><cc:license rdf:resource="http://creativecommons.org/licenses/publicdomain/"/><dc:publisher><cc:Agent rdf:about="http://openclipart.org/"><dc:title>Openclipart</dc:title></cc:Agent></dc:publisher></cc:Work><cc:License rdf:about="http://creativecommons.org/licenses/publicdomain/"><cc:permits rdf:resource="http://creativecommons.org/ns#Reproduction"/><cc:permits rdf:resource="http://creativecommons.org/ns#Distribution"/><cc:permits rdf:resource="http://creativecommons.org/ns#DerivativeWorks"/></cc:License></rdf:RDF></metadata></svg>
